 http://www.silvertorrent.org 
http://silvertorrent.org/index.php?page=torrent-details&id=a1237bc17e517803d8901eba6d34e885d857c987 
http://www.shotpix.com/images/08096634903738710469.png
 
http://collider.com/wp-content/uploads/zero-dark-thirty-poster1.jpg 
http://www.imdb.com/title/tt1790885/

Format                                   : Matroska
Format version                           : Version 2
File size                                : 2.73 GiB
Duration                                 : 2h 36mn
Overall bit rate                         : 2 486 Kbps


Video

Duration                                 : 2h 36mn
Bit rate                                 : 2 052 Kbps
Width                                    : 720 pixels
Height                                   : 384 pixels
Display aspect ratio                     : 1.85:1
Frame rate mode                          : Constant
Frame rate                               : 29.970 fps
Color space                              : YUV
Chroma subsampling                       : 4:2:0
Bit depth                                : 8 bits
Scan type                                : Progressive
Bits/(Pixel*Frame)                       : 0.248
Stream size                              : 2.25 GiB (83%)
Writing library                          : x264 core 120
Language                                 : English


Audio
ID                                       : 2
Format                                   : AC-3
Format/Info                              : Audio Coding 3
Duration                                 : 2h 36mn
Bit rate mode                            : Constant
Bit rate                                 : 384 Kbps
Channel(s)                               : 2 channels
Channel positions                        : Front: L R
Sampling rate                            : 48.0 KHz
Bit depth                                : 16 bits
Compression mode                         : Lossy
Stream size                              : 431 MiB (15%) 
http://silvertorrent.org/index.php?page=torrent-details&id=a1237bc17e517803d8901eba6d34e885d857c987 
http://img526.imageshack.us/img526/3861/frame0l.png
http://img152.imageshack.us/img152/8200/frame1b.png
http://img845.imageshack.us/img845/9951/frame3y.png
http://img571.imageshack.us/img571/4483/frame4o.png
http://img593.imageshack.us/img593/3899/frame5k.png 
http://silvertorrent.org/index.php?page=torrent-details&id=a1237bc17e517803d8901eba6d34e885d857c987